<svg id="Layer_2" data-name="Layer 2" xmlns="http://www.w3.org/2000/svg" viewBox="0 0 90 45.7">
  <defs>
    <style>
      .cls-1, .cls-2 {
        fill: #fff;
        stroke: #fff;
      }

      .cls-1 {
        stroke-miterlimit: 10;
      }

      .cls-2 {
        stroke-linejoin: round;
        stroke-width: 9px;
      }
    </style>
  </defs>
  <title>Artboard 1</title>
  <g>
    <g>
      <path class="cls-1" d="M25.1,16.18a2.85,2.85,0,0,0-3-2.68H3a2.85,2.85,0,0,0-3,2.68,2.85,2.85,0,0,0,3,2.68H6.26L2,44.15a1.37,1.37,0,0,0,1.26,1.52H3.5A1.46,1.46,0,0,0,5,44.55l1.23-7.3H18.68l1.15,7.3a1.46,1.46,0,0,0,1.48,1.15h.21a1.37,1.37,0,0,0,1.28-1.51l-4-25.32H22.1A2.85,2.85,0,0,0,25.1,16.18ZM18.25,34.57H6.66L9.3,18.86h6.48Z"/>
      <path class="cls-1" d="M57.55,16.18a2.85,2.85,0,0,0-3-2.68H35.45a2.85,2.85,0,0,0-3,2.68,2.85,2.85,0,0,0,3,2.68h3.26L34.47,44.15a1.37,1.37,0,0,0,1.26,1.52H36a1.46,1.46,0,0,0,1.48-1.14l1.23-7.3H51.12l1.15,7.3a1.46,1.46,0,0,0,1.48,1.15H54a1.37,1.37,0,0,0,1.28-1.51l-4-25.32h3.29A2.85,2.85,0,0,0,57.55,16.18ZM50.7,34.57H39.11l2.64-15.71h6.48Z"/>
      <path class="cls-1" d="M90,16.18a2.85,2.85,0,0,0-3-2.68H67.9a2.85,2.85,0,0,0-3,2.68,2.85,2.85,0,0,0,3,2.68h3.26L66.91,44.15a1.37,1.37,0,0,0,1.26,1.52h.22a1.46,1.46,0,0,0,1.48-1.14l1.23-7.3H83.57l1.15,7.3A1.46,1.46,0,0,0,86.2,45.7h.21a1.37,1.37,0,0,0,1.28-1.51l-4-25.32H87A2.85,2.85,0,0,0,90,16.18ZM83.15,34.57H71.56L74.2,18.86h6.48Z"/>
    </g>
    <line class="cls-2" y1="4.5" x2="90" y2="4.5"/>
  </g>
</svg>
