<svg id="Layer_2" data-name="Layer 2" xmlns="http://www.w3.org/2000/svg" viewBox="0 0 113.24 51.25">
  <defs>
    <style>
      .cls-1 {
        fill: none;
      }

      .cls-1, .cls-2 {
        stroke: #fff;
        stroke-miterlimit: 10;
        stroke-width: 0.25px;
      }

      .cls-2 {
        fill: #fff;
      }
    </style>
  </defs>
  <title>hvc_logo_white</title>
  <polygon class="cls-1" points="9.57 33.55 25.98 33.55 22.48 8.63 13.31 8.63 9.57 33.55"/>
  <path class="cls-2" d="M35.55,4.25A4.25,4.25,0,0,0,31.3,0H4.24a4.25,4.25,0,0,0,0,8.5H8.86l-6,40.1A2.12,2.12,0,0,0,4.67,51H5A2.12,2.12,0,0,0,7.1,49.22L8.82,37.66H26.49l1.6,11.57A2.12,2.12,0,0,0,30.19,51h.3a2.12,2.12,0,0,0,1.81-2.39L26.65,8.51h4.66a4.25,4.25,0,0,0,4.24-4.26Zm-9.7,29.17H9.43L13.17,8.5h9.18Z" transform="translate(0.14 0.13)"/>
  <polygon class="cls-1" points="48.28 33.55 64.7 33.55 61.2 8.63 52.02 8.63 48.28 33.55"/>
  <path class="cls-2" d="M74.27,4.25A4.25,4.25,0,0,0,70,0H43a4.25,4.25,0,0,0,0,8.5h4.62l-6,40.1A2.12,2.12,0,0,0,43.36,51h.31a2.12,2.12,0,0,0,2.1-1.81l1.72-11.56H65.16l1.63,11.57A2.12,2.12,0,0,0,68.9,51h.3A2.12,2.12,0,0,0,71,48.61L65.36,8.51H70a4.25,4.25,0,0,0,4.25-4.25Zm-9.7,29.17H48.16L51.89,8.5h9.18Z" transform="translate(0.14 0.13)"/>
  <polygon class="cls-1" points="87 33.55 103.42 33.55 99.92 8.63 90.75 8.63 87 33.55"/>
  <path class="cls-2" d="M113,4.25A4.25,4.25,0,0,0,108.73,0h-27a4.25,4.25,0,0,0,0,8.5H86.3l-6,40.1A2.12,2.12,0,0,0,82.08,51h.31a2.12,2.12,0,0,0,2.1-1.8l1.74-11.57h17.65l1.61,11.57A2.12,2.12,0,0,0,107.64,51h.3a2.12,2.12,0,0,0,1.81-2.39l-5.69-40.1h4.66A4.25,4.25,0,0,0,113,4.27S113,4.26,113,4.25Zm-9.7,29.17H86.86L90.66,8.5h9.18Z" transform="translate(0.14 0.13)"/>
</svg>
