<svg id="Layer_2" data-name="Layer 2" xmlns="http://www.w3.org/2000/svg" viewBox="0 0 79.76 36.05">
  <defs>
    <style>
      .cls-1 {
        fill: none;
      }
    </style>
  </defs>
  <title>hvc_logo</title>
  <g>
    <polygon class="cls-1" points="6.66 23.59 18.25 23.59 15.78 6 9.3 6 6.66 23.59"/>
    <path fill="#FF6201" d="M25.1,3a3,3,0,0,0-3-3H3A3,3,0,0,0,3,6H6.26L2,34.31A1.5,1.5,0,0,0,3.28,36l.22,0A1.5,1.5,0,0,0,5,34.75l1.23-8.17H18.68l1.15,8.17A1.5,1.5,0,0,0,21.31,36h.21a1.5,1.5,0,0,0,1.28-1.69L18.81,6H22.1A3,3,0,0,0,25.1,3ZM18.25,23.59H6.66L9.3,6h6.48Z"/>
  </g>
  <g>
    <polygon class="cls-1" points="33.99 23.59 45.58 23.59 43.11 6 36.63 6 33.99 23.59"/>
    <path fill="#494B92" d="M52.43,3a3,3,0,0,0-3-3H30.33a3,3,0,0,0,0,6h3.26L29.35,34.31A1.5,1.5,0,0,0,30.61,36l.22,0a1.5,1.5,0,0,0,1.48-1.28l1.23-8.17H46l1.15,8.17A1.5,1.5,0,0,0,48.64,36h.21a1.5,1.5,0,0,0,1.28-1.69L46.14,6h3.29A3,3,0,0,0,52.43,3ZM45.58,23.59H34L36.63,6h6.48Z"/>
  </g>
  <g>
    <polygon class="cls-1" points="61.32 23.59 72.91 23.59 70.44 6 63.96 6 61.32 23.59"/>
    <path fill="#FF6201" d="M79.76,3a3,3,0,0,0-3-3H57.66a3,3,0,0,0,0,6h3.26L56.68,34.31A1.5,1.5,0,0,0,57.94,36l.22,0a1.5,1.5,0,0,0,1.48-1.28l1.23-8.17H73.33l1.15,8.17A1.5,1.5,0,0,0,76,36h.21a1.5,1.5,0,0,0,1.28-1.69L73.47,6h3.29A3,3,0,0,0,79.76,3ZM72.91,23.59H61.32L64,6h6.48Z"/>
  </g>
</svg>
